<svg xmlns="http://www.w3.org/2000/svg" width="81.291" height="91.223" viewBox="0 0 81.291 91.223">
    <defs>
        <filter id="depreux-construction" x="0" y="0" width="81.291" height="91.223"
            filterUnits="userSpaceOnUse">
            <feOffset dy="3" input="SourceAlpha" />
            <feGaussianBlur stdDeviation="3" result="blur" />
            <feFlood flood-opacity="0.161" />
            <feComposite operator="in" in2="blur" />
            <feComposite in="SourceGraphic" />
        </filter>
    </defs>
    <g id="Composant_4_1" data-name="Composant 4 – 1" transform="translate(9 6)">
        <g transform="matrix(1, 0, 0, 1, -9, -6)" filter="url(#depreux-construction)">
            <path id="depreux-construction-2" data-name="depreux-construction"
                d="M265.713,0H296c18.225,0,33,13.621,33,30.424,0,0-.474,35.631,0,42.1S286.156,39.126,265.713,0Z"
                transform="translate(-256.71 6)" fill="#feb42b" />
        </g>
        <path id="Tracé_163" data-name="Tracé 163"
            d="M10.941,14.389l-1.861.073L2.044,3.152,1.6,14.758l-1.861.073L.3.235,2.159.161,9.2,11.451,9.644-.134,11.5-.208Zm13.632-6.7q-.021.544-.106,1.153L15.511,9.2a3.455,3.455,0,0,0,1.033,2.6,3.315,3.315,0,0,0,2.468.853A3.607,3.607,0,0,0,21.049,12a3.385,3.385,0,0,0,1.194-1.582l2-.079a5.473,5.473,0,0,1-1.9,2.758,5.717,5.717,0,0,1-3.394,1.168,5.28,5.28,0,0,1-2.824-.619,4.575,4.575,0,0,1-1.893-2,6.265,6.265,0,0,1-.6-3.1A7.025,7.025,0,0,1,14.453,5.4,5.535,5.535,0,0,1,16.486,3.26a6.045,6.045,0,0,1,2.921-.836,5.245,5.245,0,0,1,2.795.6A4.345,4.345,0,0,1,24.018,4.9,5.594,5.594,0,0,1,24.574,7.691ZM22.667,7.37a3.39,3.39,0,0,0-.4-1.853,2.752,2.752,0,0,0-1.232-1.142,3.733,3.733,0,0,0-1.774-.337,3.676,3.676,0,0,0-2.438,1.015,4.122,4.122,0,0,0-1.233,2.6ZM42.16,1.714l-3.939,11.6-1.922.076L33.95,4.4,30.9,13.6l-1.922.076L25.9,2.356l1.9-.075L30.01,11.8l3.153-9.729,1.9-.075,2.348,9.533,2.908-9.741Z"
            transform="translate(31.883 9.717) rotate(53)" fill="#fff" />
    </g>
</svg>
