<svg xmlns="http://www.w3.org/2000/svg" width="39.615" height="39.597" viewBox="0 0 39.615 39.597">
    <path id="Tracé_93" data-name="Tracé 93"
        d="M460.723,1068.184v-.153l6.43-6.432a1.972,1.972,0,0,0,0-2.79l-1.43-1.431a2.021,2.021,0,0,0-2.792,0l-6.431,6.431a.11.11,0,0,1-.152,0l-6.43-6.431a2.021,2.021,0,0,0-2.792,0l-1.43,1.431a1.972,1.972,0,0,0,0,2.79l6.431,6.432v.153l-6.431,6.432a1.974,1.974,0,0,0,0,2.79l1.43,1.43a1.977,1.977,0,0,0,2.792,0l6.43-6.431a.11.11,0,0,1,.152,0l6.431,6.431a1.975,1.975,0,0,0,2.792,0l1.43-1.43a1.974,1.974,0,0,0,0-2.79Z"
        transform="translate(-436.617 -1047.819)" fill="#414141" />

</svg>
