<svg xmlns="http://www.w3.org/2000/svg" viewBox="0 0 18.47 18.47"><defs><style>.a,.b{fill:#000;}.b{opacity:0.7;}</style></defs><g transform="translate(-404.583 -397.7)"><path class="a" d="M413.817,397.7a9.234,9.234,0,1,0,9.235,9.234A9.234,9.234,0,0,0,413.817,397.7Zm0,17.63a8.4,8.4,0,1,1,8.4-8.4A8.4,8.4,0,0,1,413.817,415.33Z"/><circle class="b" cx="1.579" cy="1.579" r="1.579" transform="translate(412.238 409.039)"/><path class="a" d="M418.028,409.039H417.5v-3.684a3.684,3.684,0,1,0-7.368,0v3.684h-.526a.527.527,0,0,0,0,1.053h8.421a.527.527,0,0,0,0-1.053Z"/></g></svg>