<svg xmlns="http://www.w3.org/2000/svg" viewBox="0 0 18.47 18.47"><defs><style>.a{fill:#000;}.b{opacity:0.7;}</style></defs><g transform="translate(-428.794 -397.7)"><path class="a" d="M438.028,397.7a9.234,9.234,0,1,0,9.234,9.234A9.234,9.234,0,0,0,438.028,397.7Zm0,17.63a8.4,8.4,0,1,1,8.4-8.4A8.4,8.4,0,0,1,438.028,415.33Z"/><g class="b"><path class="a" d="M432,404a.58.58,0,0,1,.58-.579h10.435a.579.579,0,1,1,0,1.159H432.58A.58.58,0,0,1,432,404Z"/></g><circle class="a" cx="2.319" cy="2.319" r="2.319" transform="translate(434.319 401.684)"/><g class="b"><path class="a" d="M432,409.8a.58.58,0,0,1,.58-.58h10.435a.58.58,0,0,1,0,1.16H432.58A.58.58,0,0,1,432,409.8Z"/></g><circle class="a" cx="2.319" cy="2.319" r="2.319" transform="translate(436.638 407.482)"/></g></svg>