<svg xmlns="http://www.w3.org/2000/svg" width="41" height="41" viewBox="0 0 41 41">
  <g id="Groupe_99" data-name="Groupe 99" transform="translate(-20.588 -19.063)">
    <path id="Tracé_151" data-name="Tracé 151" d="M41.088,19.063a20.5,20.5,0,1,0,20.5,20.5A20.5,20.5,0,0,0,41.088,19.063Zm0,39.138A18.638,18.638,0,1,1,59.726,39.563,18.638,18.638,0,0,1,41.088,58.2Z" transform="translate(0 0)" fill="#fff"/>
    <path id="Tracé_152" data-name="Tracé 152" d="M47.536,33c-2.773,0-5.043,1.885-5.043,4.188V50.141c0,2.3,2.269,4.188,5.043,4.188s5.042-1.885,5.042-4.188V37.19C52.578,34.887,50.308,33,47.536,33Z" transform="translate(-6.447 -4.103)" fill="#fff"/>
    <path id="Tracé_153" data-name="Tracé 153" d="M35.438,36.511a3.3,3.3,0,0,0-3.412,3.149V49.737a3.423,3.423,0,0,0,6.824,0V39.66A3.3,3.3,0,0,0,35.438,36.511Z" transform="translate(-3.367 -5.136)" fill="#fff"/>
    <path id="Tracé_154" data-name="Tracé 154" d="M60.993,36.511h0a3.3,3.3,0,0,0-3.412,3.149V49.737a3.3,3.3,0,0,0,3.412,3.149h0a3.3,3.3,0,0,0,3.413-3.149V39.66A3.3,3.3,0,0,0,60.993,36.511Z" transform="translate(-10.888 -5.136)" fill="#fff"/>
  </g>
</svg>
