<svg xmlns="http://www.w3.org/2000/svg" xmlns:xlink="http://www.w3.org/1999/xlink" width="110" height="110" viewBox="0 0 110 110">
  <defs>
    <filter id="a" x="0" y="0" width="110" height="110" filterUnits="userSpaceOnUse">
      <feOffset dy="3" input="SourceAlpha"/>
      <feGaussianBlur stdDeviation="3.5" result="b"/>
      <feFlood flood-opacity="0.149"/>
      <feComposite operator="in" in2="b"/>
      <feComposite in="SourceGraphic"/>
    </filter>
    </defs>
    <g transform="translate(-102.5 -89.5)">
      <g transform="translate(131.492 114.479)">
        <path style="fill:none;stroke:#2f2f2f;stroke-linecap:round;stroke-linejoin:round;stroke-width:5px;" d="M58.619,46.193V38.3c0-8.724-7.693-20.534-26.145-20.7S6,29.572,6,38.3v7.9" transform="translate(-6 13.003)"/>
        <path style="fill:none;stroke:#2f2f2f;stroke-linecap:round;stroke-linejoin:round;stroke-width:5px;" d="M38.309,17.655A13.155,13.155,0,1,1,25.155,4.5,13.155,13.155,0,0,1,38.309,17.655Z" transform="translate(1.155 -4.5)"/>
      </g>
      <g class="e" transform="matrix(1, 0, 0, 1, 102.5, 89.5)">
        <g style="fill:none;" transform="translate(10.5 7.5)">
          <path style="stroke:none;" d="M44.5,0A44.5,44.5,0,1,1,0,44.5,44.5,44.5,0,0,1,44.5,0Z"/>
          <path style="fill:#2f2f2f;" d="M 44.5 5 C 39.16533279418945 5 33.99288177490234 6.043685913085938 29.12635040283203 8.10205078125 C 24.42331695556641 10.09127044677734 20.19851684570312 12.94004821777344 16.56928253173828 16.56928253173828 C 12.94004821777344 20.19851684570312 10.09127044677734 24.42331695556641 8.10205078125 29.12635040283203 C 6.043685913085938 33.99288177490234 5 39.16533279418945 5 44.5 C 5 49.83466720581055 6.043685913085938 55.00711822509766 8.10205078125 59.87364959716797 C 10.09127044677734 64.57668304443359 12.94004821777344 68.80148315429688 16.56928253173828 72.43071746826172 C 20.19851684570312 76.05995178222656 24.42331695556641 78.90873718261719 29.12635040283203 80.89794921875 C 33.99288177490234 82.95631408691406 39.16533279418945 84 44.5 84 C 49.83466720581055 84 55.00711822509766 82.95631408691406 59.87364959716797 80.89794921875 C 64.57668304443359 78.90873718261719 68.80148315429688 76.05995178222656 72.43071746826172 72.43071746826172 C 76.05995178222656 68.80148315429688 78.90873718261719 64.57668304443359 80.89794921875 59.87364959716797 C 82.95631408691406 55.00711822509766 84 49.83466720581055 84 44.5 C 84 39.16533279418945 82.95631408691406 33.99288177490234 80.89794921875 29.12635040283203 C 78.90873718261719 24.42331695556641 76.05995178222656 20.19851684570312 72.43071746826172 16.56928253173828 C 68.80148315429688 12.94004821777344 64.57668304443359 10.09127044677734 59.87364959716797 8.10205078125 C 55.00711822509766 6.043685913085938 49.83466720581055 5 44.5 5 M 44.5 0 C 69.07666778564453 0 89 19.92333221435547 89 44.5 C 89 69.07666778564453 69.07666778564453 89 44.5 89 C 19.92333221435547 89 0 69.07666778564453 0 44.5 C 0 19.92333221435547 19.92333221435547 0 44.5 0 Z"/>
        </g>
      </g>
  </g>
</svg>